<mxfile host="app.diagrams.net" agent="Mozilla/5.0 (Windows NT 10.0; Win64; x64) AppleWebKit/537.36 (KHTML, like Gecko) Chrome/135.0.0.0 Safari/537.36" version="26.2.8">
  <diagram name="Página-1" id="gF_HW5m4hNfkR58VN91-">
    <mxGraphModel dx="2040" dy="1073" grid="1" gridSize="10" guides="1" tooltips="1" connect="1" arrows="1" fold="1" page="1" pageScale="1" pageWidth="827" pageHeight="1169" math="0" shadow="0">
      <root>
        <mxCell id="0" />
        <mxCell id="1" parent="0" />
        <mxCell id="e5qeqj0iojpHcZC0GCYV-3" value="" style="edgeStyle=orthogonalEdgeStyle;rounded=0;orthogonalLoop=1;jettySize=auto;html=1;" edge="1" parent="1" source="e5qeqj0iojpHcZC0GCYV-1" target="e5qeqj0iojpHcZC0GCYV-2">
          <mxGeometry relative="1" as="geometry" />
        </mxCell>
        <mxCell id="e5qeqj0iojpHcZC0GCYV-1" value="Início" style="ellipse;whiteSpace=wrap;html=1;aspect=fixed;" vertex="1" parent="1">
          <mxGeometry x="374" y="20" width="80" height="80" as="geometry" />
        </mxCell>
        <mxCell id="e5qeqj0iojpHcZC0GCYV-7" value="" style="edgeStyle=orthogonalEdgeStyle;rounded=0;orthogonalLoop=1;jettySize=auto;html=1;" edge="1" parent="1" source="e5qeqj0iojpHcZC0GCYV-2" target="e5qeqj0iojpHcZC0GCYV-6">
          <mxGeometry relative="1" as="geometry" />
        </mxCell>
        <mxCell id="e5qeqj0iojpHcZC0GCYV-2" value="Digite um número inteiro (dividendo)" style="shape=parallelogram;perimeter=parallelogramPerimeter;whiteSpace=wrap;html=1;fixedSize=1;" vertex="1" parent="1">
          <mxGeometry x="351" y="170" width="126" height="60" as="geometry" />
        </mxCell>
        <mxCell id="e5qeqj0iojpHcZC0GCYV-9" style="edgeStyle=orthogonalEdgeStyle;rounded=0;orthogonalLoop=1;jettySize=auto;html=1;" edge="1" parent="1" source="e5qeqj0iojpHcZC0GCYV-6" target="e5qeqj0iojpHcZC0GCYV-2">
          <mxGeometry relative="1" as="geometry">
            <mxPoint x="240" y="200" as="targetPoint" />
            <Array as="points">
              <mxPoint x="300" y="355" />
              <mxPoint x="300" y="200" />
            </Array>
          </mxGeometry>
        </mxCell>
        <mxCell id="e5qeqj0iojpHcZC0GCYV-11" value="" style="edgeStyle=orthogonalEdgeStyle;rounded=0;orthogonalLoop=1;jettySize=auto;html=1;exitX=1;exitY=0.5;exitDx=0;exitDy=0;entryX=0;entryY=0.5;entryDx=0;entryDy=0;" edge="1" parent="1" source="e5qeqj0iojpHcZC0GCYV-6" target="e5qeqj0iojpHcZC0GCYV-12">
          <mxGeometry relative="1" as="geometry">
            <mxPoint x="413.9999999999998" y="515" as="targetPoint" />
          </mxGeometry>
        </mxCell>
        <mxCell id="e5qeqj0iojpHcZC0GCYV-6" value="É um número inteiro?" style="rhombus;whiteSpace=wrap;html=1;" vertex="1" parent="1">
          <mxGeometry x="361" y="300" width="106" height="110" as="geometry" />
        </mxCell>
        <mxCell id="e5qeqj0iojpHcZC0GCYV-18" value="" style="edgeStyle=orthogonalEdgeStyle;rounded=0;orthogonalLoop=1;jettySize=auto;html=1;exitX=0.5;exitY=1;exitDx=0;exitDy=0;" edge="1" parent="1" source="e5qeqj0iojpHcZC0GCYV-12">
          <mxGeometry relative="1" as="geometry">
            <mxPoint x="582.58" y="390.0000000000001" as="sourcePoint" />
            <mxPoint x="582.58" y="475" as="targetPoint" />
          </mxGeometry>
        </mxCell>
        <mxCell id="e5qeqj0iojpHcZC0GCYV-12" value="Digite um número inteiro (divisor)" style="shape=parallelogram;perimeter=parallelogramPerimeter;whiteSpace=wrap;html=1;fixedSize=1;" vertex="1" parent="1">
          <mxGeometry x="520" y="325" width="126" height="60" as="geometry" />
        </mxCell>
        <mxCell id="e5qeqj0iojpHcZC0GCYV-14" value="Sim" style="text;html=1;align=center;verticalAlign=middle;whiteSpace=wrap;rounded=0;" vertex="1" parent="1">
          <mxGeometry x="467" y="325" width="60" height="30" as="geometry" />
        </mxCell>
        <mxCell id="e5qeqj0iojpHcZC0GCYV-15" value="Não" style="text;html=1;align=center;verticalAlign=middle;whiteSpace=wrap;rounded=0;" vertex="1" parent="1">
          <mxGeometry x="301" y="330" width="60" height="30" as="geometry" />
        </mxCell>
        <mxCell id="e5qeqj0iojpHcZC0GCYV-20" style="edgeStyle=orthogonalEdgeStyle;rounded=0;orthogonalLoop=1;jettySize=auto;html=1;" edge="1" parent="1" source="e5qeqj0iojpHcZC0GCYV-19" target="e5qeqj0iojpHcZC0GCYV-12">
          <mxGeometry relative="1" as="geometry">
            <mxPoint x="740" y="350.0000000000001" as="targetPoint" />
            <Array as="points">
              <mxPoint x="690" y="530" />
              <mxPoint x="690" y="360" />
            </Array>
          </mxGeometry>
        </mxCell>
        <mxCell id="e5qeqj0iojpHcZC0GCYV-22" value="" style="edgeStyle=orthogonalEdgeStyle;rounded=0;orthogonalLoop=1;jettySize=auto;html=1;" edge="1" parent="1" source="e5qeqj0iojpHcZC0GCYV-19" target="e5qeqj0iojpHcZC0GCYV-21">
          <mxGeometry relative="1" as="geometry" />
        </mxCell>
        <mxCell id="e5qeqj0iojpHcZC0GCYV-19" value="É um número inteiro?" style="rhombus;whiteSpace=wrap;html=1;" vertex="1" parent="1">
          <mxGeometry x="530" y="475" width="106" height="110" as="geometry" />
        </mxCell>
        <mxCell id="e5qeqj0iojpHcZC0GCYV-26" value="" style="edgeStyle=orthogonalEdgeStyle;rounded=0;orthogonalLoop=1;jettySize=auto;html=1;" edge="1" parent="1" source="e5qeqj0iojpHcZC0GCYV-21" target="e5qeqj0iojpHcZC0GCYV-25">
          <mxGeometry relative="1" as="geometry" />
        </mxCell>
        <mxCell id="e5qeqj0iojpHcZC0GCYV-21" value="Faça a divisão" style="whiteSpace=wrap;html=1;" vertex="1" parent="1">
          <mxGeometry x="354" y="500" width="120" height="60" as="geometry" />
        </mxCell>
        <mxCell id="e5qeqj0iojpHcZC0GCYV-23" value="Não" style="text;html=1;align=center;verticalAlign=middle;whiteSpace=wrap;rounded=0;" vertex="1" parent="1">
          <mxGeometry x="630" y="500" width="60" height="30" as="geometry" />
        </mxCell>
        <mxCell id="e5qeqj0iojpHcZC0GCYV-24" value="Sim" style="text;html=1;align=center;verticalAlign=middle;whiteSpace=wrap;rounded=0;" vertex="1" parent="1">
          <mxGeometry x="470" y="500" width="60" height="30" as="geometry" />
        </mxCell>
        <mxCell id="e5qeqj0iojpHcZC0GCYV-29" value="" style="edgeStyle=orthogonalEdgeStyle;rounded=0;orthogonalLoop=1;jettySize=auto;html=1;" edge="1" parent="1" source="e5qeqj0iojpHcZC0GCYV-25" target="e5qeqj0iojpHcZC0GCYV-28">
          <mxGeometry relative="1" as="geometry" />
        </mxCell>
        <mxCell id="e5qeqj0iojpHcZC0GCYV-31" value="" style="edgeStyle=orthogonalEdgeStyle;rounded=0;orthogonalLoop=1;jettySize=auto;html=1;" edge="1" parent="1" source="e5qeqj0iojpHcZC0GCYV-25" target="e5qeqj0iojpHcZC0GCYV-30">
          <mxGeometry relative="1" as="geometry" />
        </mxCell>
        <mxCell id="e5qeqj0iojpHcZC0GCYV-25" value="O resultado é 0?" style="rhombus;whiteSpace=wrap;html=1;" vertex="1" parent="1">
          <mxGeometry x="361" y="660" width="106" height="110" as="geometry" />
        </mxCell>
        <mxCell id="e5qeqj0iojpHcZC0GCYV-39" style="edgeStyle=orthogonalEdgeStyle;rounded=0;orthogonalLoop=1;jettySize=auto;html=1;exitX=0.5;exitY=1;exitDx=0;exitDy=0;entryX=1;entryY=0.5;entryDx=0;entryDy=0;" edge="1" parent="1" source="e5qeqj0iojpHcZC0GCYV-28" target="e5qeqj0iojpHcZC0GCYV-34">
          <mxGeometry relative="1" as="geometry" />
        </mxCell>
        <mxCell id="e5qeqj0iojpHcZC0GCYV-28" value="É uma divisão exata" style="whiteSpace=wrap;html=1;" vertex="1" parent="1">
          <mxGeometry x="540" y="685" width="120" height="60" as="geometry" />
        </mxCell>
        <mxCell id="e5qeqj0iojpHcZC0GCYV-37" style="edgeStyle=orthogonalEdgeStyle;rounded=0;orthogonalLoop=1;jettySize=auto;html=1;exitX=0.5;exitY=1;exitDx=0;exitDy=0;entryX=0;entryY=0.5;entryDx=0;entryDy=0;" edge="1" parent="1" source="e5qeqj0iojpHcZC0GCYV-30" target="e5qeqj0iojpHcZC0GCYV-34">
          <mxGeometry relative="1" as="geometry" />
        </mxCell>
        <mxCell id="e5qeqj0iojpHcZC0GCYV-30" value="É uma divisão não exata" style="whiteSpace=wrap;html=1;" vertex="1" parent="1">
          <mxGeometry x="168" y="685" width="120" height="60" as="geometry" />
        </mxCell>
        <mxCell id="e5qeqj0iojpHcZC0GCYV-32" value="Sim" style="text;html=1;align=center;verticalAlign=middle;whiteSpace=wrap;rounded=0;" vertex="1" parent="1">
          <mxGeometry x="470" y="685" width="60" height="30" as="geometry" />
        </mxCell>
        <mxCell id="e5qeqj0iojpHcZC0GCYV-33" value="Não" style="text;html=1;align=center;verticalAlign=middle;whiteSpace=wrap;rounded=0;" vertex="1" parent="1">
          <mxGeometry x="301" y="685" width="60" height="30" as="geometry" />
        </mxCell>
        <mxCell id="e5qeqj0iojpHcZC0GCYV-34" value="Fim" style="ellipse;whiteSpace=wrap;html=1;" vertex="1" parent="1">
          <mxGeometry x="354" y="850" width="120" height="80" as="geometry" />
        </mxCell>
      </root>
    </mxGraphModel>
  </diagram>
</mxfile>
